<?xml version="1.0" standalone="no"?>
<!DOCTYPE svg PUBLIC "-//W3C//DTD SVG 20010904//EN"
 "http://www.w3.org/TR/2001/REC-SVG-20010904/DTD/svg10.dtd">
<svg version="1.0" xmlns="http://www.w3.org/2000/svg"
 width="512.000000pt" height="512.000000pt" viewBox="0 0 512.000000 512.000000"
 preserveAspectRatio="xMidYMid meet">
<metadata>
Created by potrace 1.14, written by Peter Selinger 2001-2017
</metadata>
<g transform="translate(0.000000,512.000000) scale(0.100000,-0.100000)"
fill="#000000" stroke="none">
<path d="M1265 4640 c-414 -84 -731 -417 -794 -835 -7 -46 -11 -471 -10 -1255
0 -1271 -1 -1244 51 -1405 65 -202 215 -399 393 -516 112 -74 202 -111 380
-156 17 -4 579 -9 1250 -10 1292 -3 1303 -2 1420 43 22 9 40 15 40 15 0 -6 82
29 135 57 115 60 226 154 325 273 86 105 166 291 193 452 9 56 9 860 -1 917
-15 93 -19 107 -49 195 -51 151 -118 268 -222 390 -55 64 -99 106 -181 173
-49 40 -295 163 -295 148 0 -2 -21 3 -47 12 -42 14 -140 17 -822 20 l-774 3
38 -48 c66 -82 79 -98 105 -133 77 -102 217 -278 235 -294 61 -57 168 -107
255 -120 19 -3 213 -6 431 -6 244 -1 411 -5 435 -11 145 -40 261 -158 294
-301 5 -24 10 -216 10 -443 0 -424 -4 -464 -49 -554 -25 -48 -81 -104 -136
-137 -95 -55 -51 -53 -1340 -51 l-1190 2 -60 25 c-83 33 -164 115 -195 195
-20 51 -24 84 -28 217 l-4 158 951 0 951 0 -273 273 c-214 215 -284 278 -327
299 l-55 27 -450 1 c-248 0 -476 4 -507 10 -129 21 -214 85 -259 196 l-24 59
0 620 c0 563 2 625 18 677 32 104 107 179 217 215 52 17 122 18 1250 18 l1195
0 56 -28 c137 -67 235 -190 254 -321 l7 -46 300 0 301 0 -7 76 c-22 251 -116
454 -291 629 -149 150 -277 217 -530 282 -16 4 -581 8 -1255 9 -1150 2 -1230
1 -1315 -16z"/>
</g>
</svg>
