<?xml version="1.0" standalone="no"?>
<!DOCTYPE svg PUBLIC "-//W3C//DTD SVG 20010904//EN"
 "http://www.w3.org/TR/2001/REC-SVG-20010904/DTD/svg10.dtd">
<svg version="1.0" xmlns="http://www.w3.org/2000/svg"
 width="512.000000pt" height="512.000000pt" viewBox="0 0 512.000000 512.000000"
 preserveAspectRatio="xMidYMid meet">
<metadata>
Created by potrace 1.14, written by Peter Selinger 2001-2017
</metadata>
<g transform="translate(0.000000,512.000000) scale(0.100000,-0.100000)"
fill="#000000" stroke="none">
<path d="M1190 4540 c-95 -22 -150 -43 -220 -82 -190 -106 -327 -285 -386
-503 -18 -67 -19 -128 -19 -1400 0 -1126 2 -1337 14 -1375 18 -55 16 -49 26
-85 13 -48 82 -174 122 -224 129 -160 307 -268 492 -298 25 -5 636 -8 1356 -8
1254 0 1313 1 1380 19 316 85 538 329 595 652 12 70 9 1031 -4 1079 -4 17 -9
35 -10 40 -1 6 -5 16 -9 23 -5 6 -6 12 -3 12 11 0 -47 129 -90 197 -103 165
-258 281 -461 346 -67 21 -84 21 -841 25 l-773 3 58 -53 c71 -64 199 -178 233
-208 14 -12 44 -39 67 -61 l42 -39 520 0 c342 0 538 -4 573 -11 158 -33 291
-162 334 -324 20 -71 19 -938 0 -1011 -42 -157 -163 -278 -319 -320 -69 -18
-2513 -21 -2599 -3 -119 25 -250 126 -300 231 -41 87 -48 143 -48 398 l0 240
156 0 c157 0 234 -11 255 -36 6 -8 15 -14 20 -14 5 0 9 73 9 163 l0 163 -72
12 c-175 30 -320 169 -357 341 -18 84 -15 1369 3 1439 41 154 164 277 321 318
67 18 2513 21 2597 3 156 -33 305 -177 334 -325 5 -21 9 -42 10 -46 1 -5 2
-109 3 -233 l1 -226 103 2 c58 1 116 8 134 15 43 18 100 79 114 121 12 36 8
358 -5 418 -66 304 -283 534 -586 621 -62 18 -130 19 -1380 20 -1228 2 -1320
1 -1390 -16z"/>
<path d="M1256 4104 c-124 -39 -218 -140 -246 -264 -6 -27 -10 -303 -10 -700
0 -549 2 -665 15 -713 23 -90 74 -159 155 -211 83 -53 18 -51 1281 -56 l1175
-5 41 -27 c22 -15 51 -44 64 -65 24 -38 24 -41 24 -305 l0 -266 -31 -43 c-18
-24 -52 -54 -75 -66 l-44 -23 -1047 0 c-974 0 -1049 2 -1080 18 -75 39 -111
96 -121 194 -12 118 -60 148 -236 148 l-122 0 1 -211 c1 -179 4 -218 21 -266
35 -103 114 -182 222 -222 57 -21 58 -21 1315 -21 1234 0 1260 1 1318 20 107
36 186 117 223 228 21 60 21 81 21 517 -1 391 -3 460 -17 502 -43 128 -135
213 -264 242 -27 7 -256 11 -582 11 l-538 0 -47 44 c-26 24 -60 56 -77 71 -16
15 -68 62 -115 105 -47 43 -98 90 -115 105 -16 15 -51 47 -77 71 l-47 44 -353
0 c-207 0 -368 4 -389 10 -50 14 -103 66 -123 121 -15 39 -17 78 -14 290 3
224 5 246 23 274 26 39 43 57 80 81 29 19 56 19 1095 19 l1065 0 38 -24 c56
-34 88 -88 94 -159 7 -78 39 -140 92 -177 40 -28 49 -30 157 -34 l115 -3 -1
231 c-1 183 -5 241 -17 279 -35 102 -104 179 -199 221 l-59 26 -1270 2 c-1107
2 -1276 0 -1319 -13z"/>
</g>
</svg>
